<?xml version="1.0" encoding="UTF-8"?>
<!DOCTYPE svg PUBLIC "-//W3C//DTD SVG 1.1//EN" "http://www.w3.org/Graphics/SVG/1.1/DTD/svg11.dtd">
<!-- Creator: CorelDRAW 2020 (64-Bit) -->
<svg xmlns="http://www.w3.org/2000/svg" xml:space="preserve" width="210mm" height="297mm" version="1.1" style="shape-rendering:geometricPrecision; text-rendering:geometricPrecision; image-rendering:optimizeQuality; fill-rule:evenodd; clip-rule:evenodd"
viewBox="0 0 21000 29700"
 xmlns:xlink="http://www.w3.org/1999/xlink"
 xmlns:xodm="http://www.corel.com/coreldraw/odm/2003">
 <defs>
  <style type="text/css">
   <![CDATA[
    .str0 {stroke:black;stroke-width:26.46;stroke-miterlimit:22.9256}
    .fil0 {fill:black}
    .fil1 {fill:white}
   ]]>
  </style>
 </defs>
 <g id="Capa_x0020_1">
  <metadata id="CorelCorpID_0Corel-Layer"/>
  <path class="fil0 str0" d="M8206.93 11653.98c112.23,0 203.2,90.97 203.2,203.2 0,112.23 -90.97,203.2 -203.2,203.2 -112.23,0 -203.2,-90.97 -203.2,-203.2 0,-112.23 90.97,-203.2 203.2,-203.2z"/>
  <path class="fil1" d="M8271.67 11973.43l-129.48 0c-2.48,0 -8.04,-3.32 -8.12,-8.6 -0.09,-5.84 -0.51,-10.07 -0.51,-16.22l0 -69.58 147.28 0 0 51.78c0,6.3 -0.56,10.85 -0.54,16.72 0.01,5.7 0.17,11.65 0.04,17.31 -0.12,5.37 -6.05,8.59 -8.67,8.59zm-169.93 -131.09c0,-4.76 0.8,-8.95 4.45,-12.27 5.38,-4.87 14.95,-5.74 21.29,0.01 8.66,7.85 4.93,26.83 -10.64,26.83 -8.14,0 -15.1,-6.45 -15.1,-14.57zm31.82 -83.07c0,-7.84 -0.56,-12.72 4.3,-16.21 1.11,-0.8 3,-2.14 4.88,-2.14l108.43 0c4.04,0 6.33,0.53 9.68,0.57 8.74,0.11 19.57,-2.08 19.46,10.21 -0.03,3.25 -0.19,7.09 -0.02,10.27 0.81,14.92 0.55,26.91 0.55,42.07l-147.28 0 0 -44.77zm-64.19 77.14l0 67.97c0,3 2.91,9.39 4.2,11.44 9.28,14.75 21.13,16.07 37.87,16.07l0.53 35.61c0.59,12.98 16.28,26.97 25.91,26.97l137.02 0c8.67,0 19.46,-7.9 23.74,-16.18 2.9,-5.59 3.82,-7.69 3.77,-16.19 -0.01,-3.92 0.52,-5.86 0.56,-9.15l-0.02 -21.06c11.04,0 22.16,-0.24 30.09,-7.68 4.27,-3.99 11.45,-13.25 11.45,-19.83l0 -66.35c0,-9.19 -2.06,-16.87 -8.22,-23.07 -11.57,-11.69 -17.52,-10.38 -33.32,-10.38l0.02 -36.7c-0.08,-2.66 -0.49,-2.7 -0.57,-5.36 -0.4,-13.21 2.18,-24.49 -11.78,-35.69 -3.59,-2.89 -10.64,-6.94 -16.8,-6.94l-129.46 0c-14.01,0 -23.69,6.23 -29.5,17.97 -4.88,9.84 -2.01,11.32 -3.27,20.48l-0.11 41.96c0.05,2.86 0.6,3.82 -1.65,4.29 -5.03,1.04 -22.54,-4.44 -34.76,13.25 -3.56,5.16 -5.7,10.11 -5.7,18.57z"/>
  <polygon class="fil1" points="8154.06,11921.1 8259.8,11921.1 8259.8,11899.53 8154.06,11899.53 "/>
  <path class="fil1" d="M8185.89 11952.93l72.29 0c1.24,0 1.62,-0.37 1.62,-1.62l0 -19.96 -73.91 0 0 21.58z"/>
 </g>
</svg>
